<?xml version="1.0" encoding="UTF-8"?>
<svg id="Layer_2" data-name="Layer 2" xmlns="http://www.w3.org/2000/svg" viewBox="0 0 3848.16 714.25">
  <defs>
    <style>
      .cls-1 {
        opacity: .85;
      }

      .cls-2 {
        fill: #348bcb;
        stroke-width: 0px;
      }
    </style>
  </defs>
  <g id="Doppeltsolecker">
    <g class="cls-1">
      <path class="cls-2" d="M519.71,267.67c-1.98-16.68-6.96-32.03-14.93-46.06-7.98-14.02-18.12-25.97-30.43-35.85-12.31-9.87-25.22-15.47-38.7-16.8-21.81-2.11-45.09-1.89-69.84.68-24.75,2.57-49.79,7.12-75.14,13.66-25.35,6.54-50.59,15.15-75.74,25.83-25.15,10.68-49.04,22.98-71.66,36.88-22.63,13.91-43.5,29.42-62.61,46.51-19.12,17.1-35.31,35.44-48.59,55.02-4.42,6.53-8.53,13.43-12.33,20.72-3.8,7.29-6.12,14.41-6.97,21.35-.85,6.95.35,13.51,3.6,19.66,3.26,6.16,9.71,11.18,19.37,15.06,5.15-16.03,15.47-33.4,30.96-52.11,15.48-18.7,33.29-36.42,53.41-53.18,20.12-16.75,41.32-31.48,63.61-44.19,22.28-12.7,43.19-21.11,62.74-25.2-2.25,2.48-4.19,5.14-5.84,7.98-1.64,2.84-3.2,5.48-4.65,7.92-9.15,15.05-19.16,30.82-30.01,47.32-10.86,16.51-21.39,33.59-31.6,51.25-10.21,17.66-19.52,35.57-27.92,53.74-8.41,18.17-14.65,36.23-18.72,54.19-4.08,17.96-5.32,35.48-3.7,52.58,1.6,17.09,7.32,33.5,17.16,49.21-19.73,8.45-38.71,16.06-56.93,22.85-18.23,6.79-37.98,10.7-59.24,11.71,1.32-5.19,3.59-9.44,6.79-12.76,3.19-3.31,6.6-6.24,10.24-8.78,3.63-2.54,7.35-5.09,11.18-7.64,3.82-2.55,7.43-5.68,10.8-9.4-2.11-2.66-4.2-5.22-6.29-7.69-2.1-2.46-4.2-5.22-6.32-8.28-4.65,1.81-10.36,4.34-17.1,7.63-6.75,3.28-12.98,7.24-18.68,11.85-5.7,4.62-10.1,9.76-13.18,15.43-3.08,5.68-3.27,12-.57,18.98,2.57,4.23,5.43,8.33,8.58,12.32,3.15,3.99,6.67,7.48,10.57,10.45,3.89,2.98,8.34,5.33,13.36,7.06,5.01,1.73,10.66,2.25,16.95,1.56,8.64-.81,17.18-1.71,25.63-2.71,8.44-1,16.54-2.67,24.33-5.01,43.88-15.12,86.45-32.75,127.73-52.88,41.27-20.13,79.65-43.18,115.11-69.16,35.47-25.97,67.53-55.13,96.18-87.49,28.65-32.35,52.49-68.13,71.55-107.34,7.2-14.55,9.81-30.17,7.82-46.85ZM487.9,252.62c-1.11,5.78-2.7,11.67-4.78,17.7-7.33,20.09-17.63,39.92-30.9,59.5-13.27,19.58-28.55,38.67-45.82,57.26-17.27,18.59-36.06,36.36-56.36,53.32-20.31,16.96-41.16,32.96-62.54,47.99-21.39,15.04-42.84,28.69-64.36,40.97-21.52,12.28-42.12,23.03-61.81,32.27,2.36-16.69,6.94-34.38,13.75-53.06,6.8-18.68,14.68-37.5,23.65-56.49,8.95-18.98,18.54-37.39,28.74-55.26,10.19-17.85,20.05-34.51,29.58-49.97,10.59-17.87,22-35.19,34.23-51.97,12.22-16.77,24.44-33.73,36.65-50.9,2.96-4.08,5.04-7.94,6.26-11.55,1.21-3.61-.48-7.87-5.05-12.78,23.37-6.64,46.44-11.1,69.23-13.38,22.78-2.27,45.8.18,69.04,7.36,6.41,2.06,11.29,5.08,14.64,9.07,3.35,3.98,5.44,8.53,6.28,13.61.84,5.09.7,10.53-.4,16.3Z"/>
      <path class="cls-2" d="M3839.17,277.1c-6.59-9.75-15.93-17.3-28.02-22.64-24.2-10.69-50.33-16.54-78.41-17.57-28.08-1.03-56.19,1.21-84.35,6.7-28.16,5.49-55.41,13.6-81.73,24.34-26.34,10.73-50.05,22.52-71.14,35.38-8.84,5.16-17.84,10.73-27.03,16.69-9.19,5.97-17.97,12.31-26.33,19.02,10.57-18.27,21.44-36.55,32.61-54.85,11.16-18.3,20.58-38.08,28.25-59.38,2.1-5.62,2.25-10.56.48-14.83-1.79-4.25-4.74-8.26-8.86-12.01-8.26-7.5-17.07-12.21-26.43-14.13-9.37-1.92-19.65-.24-30.85,5.03-20.85,9.68-39.52,21.63-56.02,35.84-16.49,14.21-33.29,28.24-50.39,42.08l29.86-56.49c-4.53-3.72-8.93-7.17-13.22-10.32-4.3-3.14-8.76-5.5-13.36-7.06-4.62-1.56-9.17-1.73-13.64-.53-4.48,1.2-9.17,4.49-14.04,9.85-12.04,12.42-22.43,26.24-31.17,41.46-8.75,15.22-16.37,31.28-22.86,48.17-1.54,4.02-3.03,8.06-4.48,12.11-10.59,8.36-21.02,17.12-31.28,26.31-12.12,10.85-24.65,21.22-37.59,31.11-12.95,9.9-26.53,19.13-40.71,27.7-14.2,8.58-29.27,15.42-45.2,20.52-8.97,2.41-15.2,2.11-18.69-.88-3.5-2.99-5.46-9.01-5.9-18.07-.49-10.24.42-19.95,2.75-29.14,2.32-9.19,6.01-18.64,11.08-28.36,9.22,3.11,18.84,6.11,28.85,8.98,10,2.88,20.23,2.09,30.68-2.35,27.11-10.77,48.97-28.39,65.56-52.87,12.17-17.95,9.83-33.82-7.01-47.63-7.39-5.96-15.26-11.6-23.61-16.93-8.35-5.32-17.12-9.25-26.32-11.77-9.21-2.52-18.41-3.06-27.61-1.64-9.21,1.43-18.37,5.91-27.48,13.45-23.58,18.89-40.78,40.84-51.62,65.82-1.99,4.58-3.8,9.25-5.44,13.99l-.1-.1c-5.28,5.39-11.92,12.81-19.96,22.27-8.04,9.47-16.35,19.34-24.93,29.61-8.59,10.28-17.01,20.06-25.24,29.33-8.24,9.28-15,16.61-20.26,21.99-6.4,6.62-12.38,9.47-17.95,8.56-5.58-.92-10.75-3.83-15.52-8.73-4.78-4.9-9.22-11.1-13.32-18.61-4.11-7.5-7.91-14.72-11.4-21.66,26.4-17.44,49.83-37.02,70.32-58.72,20.47-21.7,40.36-45.45,59.65-71.24-5.67-2.88-10.42-5.32-14.26-7.31-3.85-1.98-7.98-3.85-12.41-5.62-5.53,8.17-11.92,16.95-19.17,26.38-7.25,9.43-15.2,18.69-23.84,27.78-8.65,9.1-18.21,17.55-28.69,25.35-10.49,7.81-21.73,14.17-33.73,19.08,8.13-28.01,17.5-55.01,28.1-80.98,10.6-25.97,22.11-51.48,34.53-76.55,12.42-25.06,25.54-49.87,39.37-74.42,13.82-24.54,27.85-49,42.08-73.36-5.25-2.51-10.22-5.14-14.88-7.87-4.67-2.74-9.21-4.79-13.62-6.16-4.41-1.36-8.86-1.55-13.35-.55-4.49,1.01-9.19,3.99-14.08,8.96-23.74,23.63-45.46,52.21-65.18,85.72-19.71,33.51-37.35,69.29-52.89,107.33-15.56,38.05-28.88,76.98-40.01,116.78-.44,1.58-.87,3.15-1.3,4.72-20.95,22.21-44.04,42.39-69.29,60.53-27.67,19.88-58.68,33.99-93.01,42.34,4.44-14.42,9.86-28.99,16.27-43.71,6.4-14.71,13.61-28.97,21.64-42.78,8.02-13.8,17.18-26.48,27.49-38.03,10.3-11.54,21.78-21.17,34.44-28.88,4.54,4.13,9.06,7.96,13.58,11.49,4.51,3.54,9.61,7.14,15.32,10.81,6.66-9.39,9.97-16.26,9.97-20.61-.01-4.34-3.13-9.71-9.36-16.13-8.3-8.28-16.81-15.08-25.55-20.39-8.75-5.3-17.78-8.52-27.11-9.66-9.33-1.13-18.85.01-28.55,3.44-9.71,3.42-19.28,9.71-28.7,18.84-8.69,8.32-17.48,18.4-26.38,30.27-8.91,11.88-16.69,24.58-23.34,38.12-1.96,3.99-3.79,8-5.51,12.03-11.62,9.06-23.05,18.6-34.28,28.66-12.12,10.85-24.65,21.22-37.59,31.11-12.95,9.9-26.53,19.13-40.71,27.7-14.2,8.58-29.27,15.42-45.2,20.52-8.97,2.41-15.2,2.11-18.69-.88-3.5-2.99-5.46-9.01-5.9-18.07-.49-10.24.42-19.95,2.75-29.14,2.32-9.19,6.01-18.64,11.08-28.36,9.22,3.11,18.84,6.11,28.85,8.98,10,2.88,20.23,2.09,30.68-2.35,27.11-10.77,48.97-28.39,65.56-52.87,12.17-17.95,9.83-33.82-7.01-47.63-7.39-5.96-15.27-11.6-23.61-16.93-8.35-5.32-17.12-9.25-26.32-11.77-9.21-2.52-18.41-3.06-27.61-1.64-9.21,1.43-18.37,5.91-27.48,13.45-23.58,18.89-40.78,40.84-51.62,65.82-2.63,6.07-4.96,12.28-6.99,18.63-9.46,12.75-18.75,25.64-27.87,38.7-9.97,14.3-20.26,28.21-30.87,41.74-10.6,13.53-22.02,26.62-34.24,39.24-12.23,12.63-25.99,24.04-41.29,34.24-2.14-11.74-2.76-24.64-1.85-38.7.9-14.05,2.9-28.06,5.98-42.03,3.08-13.96,7.46-27.59,13.14-40.89,5.67-13.3,12.21-25.25,19.6-35.87,34.29-42.29,65.72-86.82,94.27-133.59,28.55-46.75,51.44-96.4,68.67-148.94,2.39-7.61,2.72-13.16.98-16.63-1.75-3.47-5.9-7.61-12.44-12.43-8.18-5.92-14.36-9.38-18.55-10.36-4.19-.98-9.53.85-16.02,5.5-18.36,12.33-34.43,27.11-48.21,44.35-13.78,17.24-27.13,35.25-40.05,54.02-25.5,36.36-47.38,74.01-65.65,112.97-18.21,38.85-33.4,79.42-45.56,121.7-4.24,2.55-8.69,5.26-13.36,8.12-7.68,4.72-15.21,8.23-22.59,10.55,1.84-11.13,3.46-22.37,4.9-33.69,1.43-11.32,1.31-22.06-.36-32.25-1.67-10.18-5.66-19.36-11.98-27.55-6.31-8.18-16.3-14.71-29.95-19.59-6.02-2.08-12.88-3.13-20.58-3.16-7.7-.02-15.27.73-22.69,2.27-7.43,1.54-14.52,4.05-21.25,7.53-6.74,3.49-12.17,7.69-16.27,12.62-15.69,18.51-28.49,37.78-38.39,57.79-4.53,9.16-8.55,18.9-12.07,29.21l-78.66,60.69c-7.28-20.17-11.73-38.81-13.33-55.91-1.61-17.09-.15-32.06,4.37-44.91,4.51-12.84,12.21-23.18,23.09-31.01,10.88-7.82,25.16-12.55,42.84-14.19,1.18-.06,2.56-.12,4.13-.2,1.57-.07,2.94-.53,4.08-1.38-3.44-5.76-7.63-10.89-12.58-15.39-4.95-4.5-10.36-8.18-16.22-11.07-5.86-2.87-12.07-4.75-18.62-5.62-6.55-.87-12.96-.56-19.2.92-12.86,3.38-24.34,9.16-34.4,17.34-10.07,8.18-18.3,17.75-24.68,28.71-6.38,10.96-10.45,22.81-12.22,35.52-1.76,12.72-.75,25.5,3.02,38.34.32,1.26.67,2.52,1.04,3.8-10.63,11.3-21.01,23.14-31.14,35.53-13.42,16.44-27.06,32.78-40.88,49.03-13.83,16.26-28.08,31.84-42.76,46.75-14.68,14.91-30.24,28.09-46.66,39.53,2.54-29.33,7.57-58.29,15.09-86.87,7.52-28.58,16.83-56.66,27.95-84.23,11.12-27.56,23.53-54.71,37.26-81.42,13.72-26.71,27.86-53.04,42.41-79,2.56-4.06,5.49-6.78,8.79-8.12,3.28-1.34,7.28-2.51,11.97-3.53,15.3-1.92,32.54-4.52,51.73-7.8,19.18-3.29,39.26-6.51,60.23-9.69,20.96-3.17,42.43-6.17,64.4-9,21.97-2.83,43.49-4.64,64.58-5.46,21.07-.8,41.22-.49,60.44.96,19.21,1.45,36.64,4.76,52.28,9.93,5.17.94,7.8.22,7.89-2.15.08-2.37-1.34-5.26-4.26-8.68-5.39-5.27-11.12-9.63-17.2-13.09-6.09-3.46-12.94-6.39-20.55-8.79-13.22-4.1-31.02-6.81-53.38-8.1-22.37-1.3-47.34-1.38-74.91-.27-27.58,1.12-56.78,3.41-87.6,6.85-30.83,3.45-60.92,7.65-90.29,12.61l49.69-75.21c2.46,1.86,4.9,3.42,7.33,4.68,2.43,1.27,5.25,2.62,8.48,4.04.29-1.98,1.29-5.88,2.99-11.69,1.69-5.8,3.48-11.8,5.35-18.02,1.87-6.2,3.48-11.8,4.82-16.81,1.33-5,1.8-7.68,1.39-8.06-3.36-4.18-7.01-8.25-10.95-12.21-3.95-3.96-8.15-7.4-12.63-10.35-4.47-2.54-8.42-2.75-11.87-.62-3.45,2.14-6.88,4.68-10.3,7.6-10.96,10.4-21.38,21.55-31.26,33.47-9.89,11.93-19.76,24.33-29.6,37.24-9.85,12.91-19.58,26.1-29.19,39.59-9.62,13.49-19.64,26.99-30.04,40.52-11.82.56-24.33,1.07-37.53,1.5-10.39.34-20.42.36-30.1.05,12.64-26.75,23.63-54.34,32.96-82.79,2.39-7.61,2.72-13.16.98-16.63-1.75-3.47-5.9-7.61-12.44-12.43-8.18-5.92-14.36-9.38-18.55-10.36-4.19-.98-9.53.85-16.02,5.5-18.36,12.33-34.43,27.11-48.21,44.35-13.78,17.24-27.13,35.25-40.05,54.02-25.5,36.36-47.38,74.01-65.65,112.97-18.27,38.97-33.49,79.67-45.67,122.09-.32,1.08-.64,2.17-.95,3.25-10.23,8.11-20.32,16.6-30.24,25.48-12.12,10.85-24.65,21.22-37.59,31.11-12.95,9.9-26.53,19.13-40.71,27.7-14.2,8.58-29.27,15.42-45.2,20.52-8.97,2.41-15.2,2.11-18.69-.88-3.5-2.99-5.46-9.01-5.9-18.07-.49-10.24.42-19.95,2.75-29.14,2.32-9.19,6.01-18.64,11.08-28.36,9.22,3.11,18.84,6.11,28.85,8.98,10,2.88,20.23,2.09,30.68-2.35,27.11-10.77,48.97-28.39,65.56-52.87,12.17-17.95,9.83-33.82-7.01-47.63-7.39-5.96-15.27-11.6-23.61-16.93-8.35-5.32-17.12-9.25-26.32-11.77-9.21-2.52-18.41-3.06-27.61-1.64-9.21,1.43-18.37,5.91-27.48,13.45-23.58,18.89-40.78,40.84-51.62,65.82-3.36,7.75-6.23,15.73-8.6,23.92-6.55,5.39-12.73,10.38-18.55,14.97-6.66,5.26-13.34,10.02-20.04,14.28-6.71,4.27-13.92,8.27-21.63,11.99-7.72,3.73-16.23,7.2-25.56,10.4,7.48-8.65,14.54-17.96,21.16-27.95,6.63-9.98,12.04-20.61,16.24-31.86,2.79-7.63,3.61-15.27,2.46-22.91-1.16-7.64-5.05-14.65-11.66-21.05-5.8-5.64-11.57-10.79-17.32-15.45-5.75-4.66-11.83-7.82-18.22-9.49-7.6-2.01-15.89-2-24.87,0-8.99,2.01-18.61,5.14-28.86,9.37-10.26,4.25-20.77,9.38-31.53,15.42-10.77,6.05-21.73,12.09-32.88,18.15,3.36-4.1,7.8-10.14,13.34-18.11,5.54-7.96,11.46-16.04,17.79-24.24,6.32-8.19,12.57-15.7,18.76-22.51,6.19-6.81,11.62-10.92,16.29-12.32-22.12-33.28-44.06-37.95-65.8-14.02-16.52,17.77-32.87,39.08-49.05,63.92-16.19,24.86-31.19,51.52-45.02,80.01-.17.34-.33.69-.5,1.03-4.16,3.38-8.17,6.6-12.02,9.63-6.66,5.26-13.34,10.02-20.04,14.28-6.71,4.27-13.92,8.27-21.63,11.99-7.72,3.73-16.23,7.2-25.56,10.4,7.48-8.65,14.54-17.96,21.16-27.95,6.63-9.98,12.04-20.61,16.24-31.86,2.79-7.63,3.61-15.27,2.46-22.91-1.16-7.64-5.05-14.65-11.66-21.05-5.8-5.64-11.57-10.79-17.32-15.45-5.75-4.66-11.83-7.82-18.22-9.49-7.6-2-15.89-2-24.87,0-8.99,2.01-18.61,5.14-28.86,9.37-10.26,4.25-20.77,9.38-31.53,15.42-10.77,6.05-21.73,12.09-32.88,18.15,3.36-4.1,7.8-10.14,13.34-18.11,5.54-7.96,11.46-16.04,17.79-24.24,6.32-8.19,12.57-15.7,18.76-22.51,6.19-6.81,11.62-10.92,16.29-12.32-22.12-33.28-44.06-37.95-65.8-14.02-16.52,17.77-32.87,39.08-49.05,63.92-15.09,23.17-29.16,47.93-42.2,74.26-4.68,2.81-9.61,5.8-14.81,8.99-7.68,4.72-15.21,8.23-22.59,10.55,1.84-11.13,3.46-22.37,4.9-33.69,1.43-11.32,1.31-22.06-.36-32.25-1.67-10.18-5.66-19.36-11.98-27.55-6.31-8.18-16.3-14.71-29.95-19.59-6.02-2.08-12.88-3.13-20.58-3.16-7.7-.02-15.27.73-22.69,2.27-7.43,1.54-14.52,4.05-21.25,7.53-6.74,3.49-12.17,7.69-16.27,12.62-15.69,18.51-28.49,37.78-38.39,57.79-9.89,20.01-17.39,42.78-22.49,68.28-4.11,21.12-3.13,37.66,2.96,49.6,6.1,11.95,18.67,23.19,37.73,33.72,13.78,7.63,26.46,10.58,38.02,8.84,11.56-1.74,22.84-7.21,33.85-16.42,23.11-20.05,40.72-43.99,52.82-71.8,2.85-6.45,6.46-11.35,10.84-14.73,4.37-3.36,9.27-6.16,14.7-8.4,4.42-1.8,8.74-3.83,12.97-6.07-9.94,22-19.01,44.58-27.19,67.73-10.77,30.52-19.02,60.32-24.74,89.41-2.9,13.55-4.76,26.28-5.58,38.16-.81,11.88.19,22.49,3,31.83,2.81,9.34,7.63,17.19,14.45,23.59,6.82,6.38,16.42,11.06,28.8,14.02,3.58.61,6.22,0,7.9-1.86,1.69-1.86,2.25-4.55,1.69-8.07-2.06-10.17-1.76-22.52.89-37.05,2.66-14.54,6.57-29.73,11.74-45.56,5.16-15.85,10.84-31.4,17.01-46.7,6.17-15.29,11.74-28.78,16.72-40.47,25.94-2.42,51.91-6.13,77.92-11.13,26.01-4.99,51.45-11.64,76.32-19.93,24.86-8.29,48.55-18.7,71.04-31.23,5.99-3.33,11.83-6.86,17.54-10.58-5.58,13.55-10.84,27.31-15.78,41.28-10.77,30.52-19.02,60.32-24.74,89.41-2.9,13.55-4.76,26.28-5.58,38.16-.81,11.88.19,22.49,3,31.83,2.81,9.34,7.63,17.19,14.45,23.59,6.82,6.38,16.42,11.06,28.8,14.02,3.58.62,6.22,0,7.9-1.86,1.69-1.86,2.25-4.55,1.69-8.07-2.06-10.17-1.76-22.52.89-37.05,2.66-14.54,6.57-29.73,11.74-45.56,5.16-15.84,10.84-31.4,17.01-46.7,6.17-15.29,11.74-28.78,16.72-40.47,25.94-2.42,51.91-6.13,77.92-11.13,26.01-4.99,51.45-11.64,76.32-19.93,24.86-8.29,48.55-18.7,71.04-31.23,13.19-7.34,25.68-15.6,37.49-24.78-.71,6.76-1.14,13.65-1.27,20.68-.2,12.25,2.86,22.57,9.18,30.94,6.32,8.39,14.76,15.68,25.32,21.88,27.13,14.49,53.76,14.01,79.87-1.45,24.58-14.2,47.47-30.69,68.69-49.47,9.81-8.69,19.49-17.55,29.03-26.57-2.34,20.74-1.98,41.55,1.1,62.43,1.45,13.75,5.47,25.5,12.05,35.25,6.59,9.75,16.54,17.86,29.88,24.33,9.28,4.29,17.67,6.36,25.17,6.2,7.49-.15,14.45-3.15,20.89-8.99,12.43-12.44,23.95-25.42,34.55-38.96,10.6-13.53,20.69-27.34,30.29-41.42,3.97-5.83,7.89-11.72,11.76-17.65-1.43,7-2.63,14.03-3.6,21.11-1.9,13.91-2.11,28.13-.62,42.66.89,10.23,3.78,18.97,8.66,26.23,4.89,7.27,12.56,12.82,23,16.66,2.44,1.46,4.86,2.63,7.27,3.5,2.41.87,4.62,1.85,6.65,2.94,8.52,4.72,15.75,5.56,21.73,2.51,5.97-3.05,12.57-7.51,19.79-13.38,26.38-26.13,51.91-53.7,76.57-82.71,20.38-23.97,41.61-49.94,63.7-77.91,2.42,6.08,5.47,13.42,9.12,22.02,3.77,8.9,8.35,19.94,13.72,33.09-15.25,11.39-29.35,21.74-42.33,31.04-12.97,9.31-24.88,18.36-35.71,27.17-10.83,8.81-20.55,17.96-29.18,27.45-8.62,9.5-16.01,20.1-22.16,31.85-3.26,6.08-5.93,12.13-8.01,18.15-2.08,6.02-3.47,12.01-4.17,17.96-.7,5.95-.53,11.57.51,16.85,1.05,5.28,3.44,9.99,7.19,14.16,11.54,10.11,23.72,17.12,36.53,21.05,12.83,3.92,26.81,3.35,41.96-1.71,38.44-13.29,69.14-35.68,92.12-67.17,9.2-13.86,15.71-26.31,19.53-37.35,3.81-11.03,5.76-21.98,5.83-32.84.07-10.86-1.36-22.14-4.28-33.84-2.93-11.7-6.52-24.95-10.78-39.75,14.42-12.13,28.98-23.29,43.7-33.47,5.28-3.65,10.45-7.5,15.53-11.55-.44,2.03-.88,4.07-1.29,6.13-4.11,21.12-3.13,37.66,2.96,49.6,6.1,11.95,18.67,23.19,37.73,33.72,13.78,7.63,26.46,10.58,38.02,8.84,11.56-1.74,22.84-7.21,33.85-16.42,23.11-20.05,40.72-43.99,52.82-71.8,2.85-6.45,6.46-11.35,10.84-14.73,4.37-3.36,9.27-6.16,14.7-8.4,6.32-2.58,12.44-5.6,18.36-9.08-5.71,27.9-6.49,55.94-2.34,84.1,1.45,13.75,5.47,25.5,12.05,35.25,6.59,9.75,16.54,17.86,29.88,24.33,9.28,4.29,17.67,6.36,25.17,6.2,7.49-.15,14.45-3.15,20.89-8.99,12.43-12.44,23.95-25.42,34.55-38.96,10.6-13.53,20.69-27.34,30.29-41.42,8.67-12.73,17.08-25.69,25.26-38.88-.09,1.99-.15,3.99-.19,6.01-.2,12.25,2.86,22.57,9.18,30.94,6.32,8.39,14.76,15.68,25.32,21.88,27.13,14.49,53.76,14.01,79.86-1.45,24.58-14.2,47.47-30.69,68.69-49.47,9.33-8.26,18.52-16.67,27.61-25.22-1.13,8.37-1.27,16.54-.4,24.51.6,4.32,1.9,8.7,3.88,13.14,1.99,4.45,4.64,8.17,7.94,11.17,9.08,8.25,17.38,14.86,24.93,19.83,7.54,4.97,14.99,8.16,22.37,9.59,7.37,1.42,15.14.96,23.32-1.41,8.18-2.36,17.64-6.56,28.41-12.61,22.99-14.51,44.8-30.95,65.44-49.31,8.21-7.3,16.3-14.85,24.27-22.64-5.18,22.11-9.54,43.69-13.08,64.74-.31,1.6-.57,4.47-.77,8.62-.19,4.15-.19,8.4.02,12.73.21,4.34.8,8.46,1.77,12.35.98,3.9,2.48,6.39,4.5,7.48,6.91,4.02,13.97,7.43,21.21,10.24,7.24,2.82,14.75,3.24,22.56,1.29.78-16.62,3.57-32.44,8.39-47.47,4.8-15.03,9.58-30.75,14.32-47.16,4.25,6.51,8.13,13.23,11.62,20.17,3.49,6.94,7.56,13.66,12.21,20.14,4.25,6.51,9.02,11.32,14.31,14.41,5.27,3.11,10.5,4.93,15.66,5.47,5.15.55,9.87.12,14.15-1.27,4.27-1.39,7.74-3.13,10.41-5.24,3.41-2.92,7.11-6.16,11.08-9.71,3.98-3.54,8.02-7.58,12.15-12.13,4.87-5.36,11.32-12.87,19.35-22.54,8.02-9.65,16.42-19.73,25.2-30.22,6.21-7.43,12.23-14.64,18.07-21.65-.7,6.72-1.12,13.57-1.26,20.55-.2,12.25,2.85,22.57,9.18,30.94,6.32,8.39,14.76,15.68,25.32,21.88,27.14,14.49,53.76,14.01,79.87-1.45,24.58-14.2,47.47-30.69,68.69-49.47,8.16-7.22,16.22-14.56,24.19-22.01-3.94,15.43-7.28,30.83-10.01,46.2-1.59,7.98-1.25,15.07,1.02,21.27,2.28,6.21,5.69,11.57,10.24,16.09,4.56,4.52,9.77,8.12,15.62,10.8,5.85,2.68,11.54,4.09,17.08,4.22,8-22.49,18.35-45.29,31.07-68.39,12.71-23.11,27.35-45.02,43.93-65.75,16.57-20.72,34.82-39.56,54.73-56.5,19.91-16.94,41.26-30.69,64.05-41.25-2.67,10.4-6.13,20.42-10.4,30.1-4.27,9.68-8.94,19.38-14,29.09-5.07,9.72-10.12,19.53-15.17,29.44-5.06,9.92-9.49,20.29-13.31,31.13-4.56,12.06-3.87,22.3,2.06,30.69,5.92,8.4,14.43,12.93,25.52,13.58l1.21.53c16.42-11.44,35.16-22.01,56.21-31.7,21.05-9.68,43.05-18.05,66.01-25.06,22.95-7.02,46.57-12.38,70.87-16.12,24.29-3.72,48-5.45,71.1-5.18,23.11.28,45.04,2.88,65.8,7.81,20.76,4.93,39.48,12.72,56.18,23.37,5.28,3.3,9.99,4.55,14.09,3.77,4.11-.79,7.48-6.58,10.12-17.36.65-19.37-2.32-33.94-8.9-43.69ZM3106.59,292.59c5.2-6.76,10.99-13.55,17.38-20.37,6.38-6.82,12.8-12.94,19.25-18.39,6.45-5.43,12.38-9.27,17.81-11.51-.36,9.1-2.7,17.8-7.04,26.09-4.34,8.3-9.72,15.56-16.13,21.79-6.42,6.23-13.37,11.3-20.88,15.21-7.51,3.91-14.83,5.65-21.96,5.19,2.51-5.24,6.36-11.26,11.57-18.02ZM2473.9,322.84c5.2-6.76,10.99-13.55,17.38-20.37,6.38-6.82,12.8-12.94,19.25-18.39,6.45-5.43,12.38-9.27,17.81-11.51-.36,9.1-2.7,17.8-7.04,26.09-4.34,8.3-9.72,15.56-16.13,21.79-6.42,6.23-13.37,11.3-20.88,15.21-7.51,3.91-14.83,5.65-21.96,5.19,2.51-5.24,6.36-11.26,11.57-18.02ZM2379.48,162.16c15.8-28.59,33.12-56.55,51.94-83.9-10.31,32.08-23.97,62.04-41,89.89-17.02,27.86-34.76,55.25-53.21,82.18,12.37-30.2,26.46-59.59,42.26-88.17ZM1360.35,376.09c5.2-6.76,10.99-13.55,17.38-20.37,6.38-6.82,12.8-12.94,19.25-18.39,6.45-5.43,12.38-9.27,17.81-11.51-.36,9.1-2.7,17.8-7.04,26.09-4.34,8.3-9.72,15.56-16.13,21.79-6.42,6.23-13.37,11.3-20.88,15.21-7.51,3.91-14.83,5.65-21.96,5.19,2.51-5.24,6.36-11.26,11.57-18.02ZM567.45,510.82c-11.55,14.37-25.87,24.53-42.95,30.47-.1-18.54,2.47-36.92,7.73-55.14,5.24-18.21,10.88-34.36,16.93-48.47,3.96,8.5,9.03,15.46,15.21,20.88,6.18,5.43,17.15,7.97,32.93,7.6-8.35,15.41-18.29,30.29-29.84,44.65ZM627.98,383.58c-1.01,7.95-2.5,15.91-4.48,23.9-1.99,8-4.2,15.5-6.62,22.52-2.43,7.03-4.54,12.36-6.34,15.99-7.49.36-13.61.26-18.37-.31-4.76-.56-8.78-1.85-12.03-3.87-3.26-2.01-6.26-4.93-9-8.75-2.75-3.81-5.86-8.99-9.33-15.54,2.21-3.26,4.21-6.81,6-10.65,1.79-3.83,3.79-7.38,6-10.65,2.21-3.26,5.03-6.25,8.45-8.99,3.42-2.73,7.86-4.61,13.35-5.67,2.34-.5,4.62-2.49,6.82-5.95,2.2-3.45,3.82-6.79,4.85-10,.67-2.4.44-5.15-.69-8.26-1.14-3.1-2.17-6.01-3.08-8.73,7.38-2.32,13.02-2,16.92.97,3.89,2.98,6.37,7.39,7.44,13.26,1.07,5.87,1.1,12.78.1,20.72ZM893.47,382.14c-5.4,10.92-12.3,21.41-20.7,31.48-8.4,10.08-17.53,19.4-27.38,27.95-9.86,8.57-18.42,15.39-25.67,20.47-13.41,8.54-27.06,16.1-40.95,22.68-13.9,6.59-28.43,12.22-43.6,16.89,6.55-19.65,15.81-38.74,27.75-57.28,11.94-18.53,25.27-34.86,39.99-48.98,14.72-14.12,30.37-25.14,46.97-33.04,16.59-7.9,33-11.44,49.23-10.64,1.63,9.4-.25,19.55-5.65,30.47ZM1192.39,367.84c-5.4,10.92-12.3,21.41-20.7,31.48-8.4,10.08-17.53,19.4-27.38,27.95-9.86,8.57-18.42,15.39-25.67,20.47-13.41,8.54-27.06,16.1-40.95,22.68-13.9,6.59-28.43,12.22-43.6,16.89,6.55-19.65,15.81-38.74,27.75-57.28,11.94-18.53,25.27-34.86,39.99-48.98,14.72-14.12,30.37-25.14,46.97-33.04,16.59-7.9,33-11.44,49.23-10.64,1.63,9.4-.25,19.55-5.65,30.47ZM1656.26,198.06l19.41-33.67h0c10.51-17.43,21.6-34.62,33.27-51.58-5.96,18.56-13.06,36.4-21.27,53.54h0l-20.2,37.12h0c-16.88,27.59-34.46,54.73-52.73,81.41,12.17-29.72,26.02-58.66,41.52-86.82ZM1699.08,327.63c-6.89,15-13.14,30.32-18.75,45.92-8.96,12.12-17.78,24.37-26.43,36.76-9.97,14.3-20.26,28.21-30.87,41.74-10.6,13.53-22.02,26.62-34.24,39.24-12.23,12.63-25.99,24.04-41.29,34.24-2.14-11.74-2.76-24.64-1.85-38.7.9-14.05,2.89-28.06,5.98-42.03,3.08-13.96,7.46-27.59,13.14-40.89,5.67-13.3,12.21-25.25,19.6-35.87,34.29-42.29,65.72-86.82,94.27-133.59,5.07-8.3,9.95-16.69,14.66-25.17,1.81.21,3.63.39,5.47.52,9.9.71,20.06.72,30.49.02,10.42-.69,20.96-1.3,31.59-1.81-2.93,4.88-5.29,9.04-7.1,12.48-1.82,3.45-3.82,6.8-6.03,10.06-17.42,32.02-33.63,64.37-48.65,97.06ZM1899.73,518.16c-5.74,16.07-14.1,31.07-25.08,45.02-10.97,13.94-23.73,25.8-38.27,35.58-14.53,9.77-29.44,15.81-44.73,18.13-1.56-16.12,1.1-30.84,7.95-44.2,6.86-13.35,15.84-25.82,26.93-37.41,11.09-11.58,23.6-22.54,37.51-32.88,13.92-10.33,27.54-20.36,40.9-30.08,2.27,14.5.54,29.78-5.21,45.84ZM2105.17,437.29c-11.55,14.37-25.87,24.53-42.95,30.47-.1-18.54,2.47-36.92,7.73-55.14,5.24-18.21,10.88-34.36,16.93-48.47,3.96,8.5,9.03,15.46,15.21,20.88,6.18,5.43,17.15,7.97,32.93,7.6-8.35,15.41-18.29,30.29-29.84,44.65ZM2165.7,310.05c-1.01,7.95-2.5,15.91-4.48,23.9-1.99,8-4.2,15.5-6.62,22.52-2.43,7.03-4.54,12.35-6.34,15.99-7.49.36-13.61.26-18.37-.31-4.76-.56-8.78-1.85-12.03-3.87-3.26-2.01-6.26-4.93-9-8.75-2.75-3.81-5.86-8.99-9.33-15.54,2.21-3.26,4.21-6.81,6-10.65,1.79-3.83,3.79-7.38,6-10.65,2.21-3.26,5.03-6.25,8.45-8.99,3.42-2.73,7.86-4.61,13.35-5.67,2.34-.5,4.62-2.49,6.82-5.95,2.2-3.45,3.82-6.79,4.85-10,.67-2.4.44-5.15-.69-8.26-1.14-3.1-2.17-6.01-3.08-8.73,7.38-2.32,13.02-2,16.92.97,3.89,2.98,6.37,7.39,7.44,13.26,1.07,5.87,1.1,12.78.1,20.72Z"/>
    </g>
  </g>
</svg>