<?xml version="1.0" encoding="utf-8"?>
<!-- Generator: Adobe Illustrator 28.2.0, SVG Export Plug-In . SVG Version: 6.00 Build 0)  -->
<svg version="1.1" id="Icons" xmlns="http://www.w3.org/2000/svg" xmlns:xlink="http://www.w3.org/1999/xlink" x="0px" y="0px"
	 viewBox="0 0 32 32" style="enable-background:new 0 0 32 32;" xml:space="preserve">
<style type="text/css">
	.st0{fill:#25D366;}
</style>
<path class="st0" d="M17,0C8.7,0,2,6.7,2,15c0,3.4,1.1,6.6,3.2,9.2l-2.1,6.4c-0.1,0.4,0,0.8,0.3,1.1C3.5,31.9,3.8,32,4,32
	c0.1,0,0.3,0,0.4-0.1l6.9-3.1C13.1,29.6,15,30,17,30c8.3,0,15-6.7,15-15S25.3,0,17,0z M25.7,20.5c-0.4,1.2-1.9,2.2-3.2,2.4
	c-0.3,0.1-0.6,0.1-1,0.1c-0.8,0-2-0.2-4.1-1.1c-2.4-1-4.8-3.1-6.7-5.8V16C10.1,15.1,9,13.4,9,11.6c0-2.2,1.1-3.3,1.5-3.8
	C11,7.3,11.7,7,12.5,7c0.2,0,0.3,0,0.5,0c0.7,0,1.2,0.2,1.7,1.2L15.1,9c0.3,0.8,0.7,1.7,0.8,1.8c0.3,0.6,0.3,1.1,0,1.6
	c-0.1,0.3-0.3,0.5-0.5,0.7c-0.1,0.2-0.2,0.3-0.3,0.3c-0.1,0.1-0.1,0.1-0.2,0.2c0.3,0.5,0.9,1.4,1.7,2.1c1.2,1.1,2.1,1.4,2.6,1.6
	c0.2-0.2,0.4-0.6,0.7-0.9l0.1-0.2c0.5-0.7,1.3-0.9,2.1-0.6c0.4,0.2,2.6,1.2,2.6,1.2l0.2,0.1c0.3,0.2,0.7,0.3,0.9,0.7
	C26.2,18.5,25.9,19.8,25.7,20.5z"/>
</svg>
